<?xml version="1.0" standalone="no"?>
<!DOCTYPE svg PUBLIC "-//W3C//DTD SVG 20010904//EN"
 "http://www.w3.org/TR/2001/REC-SVG-20010904/DTD/svg10.dtd">
<svg version="1.0" xmlns="http://www.w3.org/2000/svg"
 width="1200.000000pt" height="1200.000000pt" viewBox="0 0 1200.000000 1200.000000"
 preserveAspectRatio="xMidYMid meet">
<metadata>
Created by potrace 1.14, written by Peter Selinger 2001-2017
</metadata>
<g transform="translate(0.000000,1200.000000) scale(0.100000,-0.100000)"
fill="#000000" stroke="none">
<path d="M1810 11185 c-163 -26 -337 -95 -485 -193 -89 -60 -256 -226 -317
-317 -68 -102 -169 -328 -169 -380 0 -2 -5 -19 -10 -37 -5 -18 -12 -53 -15
-78 -3 -25 -7 -56 -10 -70 -5 -32 -5 -8172 1 -8225 10 -89 29 -182 51 -248 13
-38 21 -73 19 -77 -3 -5 -1 -10 4 -12 4 -1 25 -37 45 -78 49 -99 94 -172 116
-190 3 -3 14 -16 23 -29 9 -14 43 -52 76 -87 33 -34 58 -65 55 -68 -2 -3 -1
-4 2 -1 5 3 65 -36 84 -55 14 -14 77 -57 93 -63 11 -4 15 -12 11 -18 -4 -7 -3
-9 3 -6 6 4 34 -5 64 -20 30 -14 75 -36 101 -49 25 -12 49 -20 52 -17 3 4 6 2
6 -3 0 -5 8 -10 18 -11 9 0 44 -8 77 -16 72 -20 101 -25 138 -26 20 -1 26 -5
21 -13 -6 -10 -5 -10 8 -1 8 7 18 10 21 7 3 -4 160 -6 349 -6 245 0 347 -3
357 -11 11 -9 13 -9 8 -1 -5 8 11 12 53 12 42 0 58 -4 53 -12 -5 -8 -3 -8 8 0
20 16 498 16 518 0 11 -8 13 -8 8 0 -5 8 69 11 273 11 204 0 278 -3 273 -11
-5 -7 -2 -7 8 1 20 16 458 15 478 -1 11 -8 13 -8 8 0 -9 16 93 15 112 0 11 -8
13 -8 8 0 -10 16 812 17 832 0 11 -8 13 -8 8 0 -9 16 93 15 112 0 11 -8 13 -8
8 0 -10 16 1052 17 1072 0 11 -8 13 -8 8 0 -5 8 69 11 273 11 203 0 278 -3
273 -11 -3 -6 0 -5 8 2 17 16 61 16 78 -1 8 -6 11 -7 8 -1 -5 8 70 11 273 11
204 0 278 -3 273 -11 -5 -7 -2 -7 8 1 20 16 458 15 478 -1 11 -8 13 -8 8 0 -9
16 93 15 112 0 11 -8 13 -8 8 0 -5 9 233 12 912 12 506 0 924 3 930 6 5 4 13
2 16 -4 5 -8 11 -8 20 0 7 6 36 12 64 13 28 1 51 5 51 8 0 12 65 17 78 6 9 -7
12 -7 10 2 -3 13 70 43 84 35 4 -3 8 -1 8 4 0 15 43 22 59 10 13 -10 14 -10 3
2 -10 12 -6 17 25 32 20 10 42 18 49 18 7 0 14 4 16 9 2 5 10 11 18 13 8 2 19
8 25 15 5 7 16 13 24 15 7 2 23 11 35 21 11 10 48 40 81 66 68 54 165 150 165
164 0 5 7 7 14 4 10 -4 13 -1 10 7 -3 7 1 20 8 27 103 106 233 424 237 582 1
20 5 26 14 21 9 -6 9 -4 1 7 -6 8 -10 23 -8 34 5 28 4 8151 -1 8200 -8 78 -38
221 -55 260 -4 11 -14 36 -21 55 -23 65 -102 211 -145 270 -178 242 -418 399
-731 477 -64 16 -341 17 -4208 19 -3423 2 -4155 0 -4225 -11z"/>
<path d="M11236 7687 c3 -10 9 -15 12 -12 3 3 0 11 -7 18 -10 9 -11 8 -5 -6z"/>
<path d="M11236 6407 c3 -10 9 -15 12 -12 3 3 0 11 -7 18 -10 9 -11 8 -5 -6z"/>
<path d="M11236 5127 c3 -10 9 -15 12 -12 3 3 0 11 -7 18 -10 9 -11 8 -5 -6z"/>
<path d="M11236 3847 c3 -10 9 -15 12 -12 3 3 0 11 -7 18 -10 9 -11 8 -5 -6z"/>
<path d="M11236 2567 c3 -10 9 -15 12 -12 3 3 0 11 -7 18 -10 9 -11 8 -5 -6z"/>
<path d="M1390 882 c0 -5 7 -9 15 -9 8 0 12 4 9 9 -3 4 -9 8 -15 8 -5 0 -9 -4
-9 -8z"/>
<path d="M1470 839 c0 -5 5 -7 10 -4 6 3 10 8 10 11 0 2 -4 4 -10 4 -5 0 -10
-5 -10 -11z"/>
<path d="M10440 840 c-9 -6 -10 -10 -3 -10 6 0 15 5 18 10 8 12 4 12 -15 0z"/>
<path d="M10646 798 c3 -5 10 -6 15 -3 13 9 11 12 -6 12 -8 0 -12 -4 -9 -9z"/>
<path d="M3473 765 c0 -8 4 -12 9 -9 5 3 6 10 3 15 -9 13 -12 11 -12 -6z"/>
<path d="M6673 765 c0 -8 4 -12 9 -9 5 3 6 10 3 15 -9 13 -12 11 -12 -6z"/>
<path d="M7313 765 c0 -8 4 -12 9 -9 5 3 6 10 3 15 -9 13 -12 11 -12 -6z"/>
<path d="M2986 762 c-3 -5 1 -9 9 -9 8 0 12 4 9 9 -3 4 -7 8 -9 8 -2 0 -6 -4
-9 -8z"/>
<path d="M3956 758 c3 -5 10 -6 15 -3 13 9 11 12 -6 12 -8 0 -12 -4 -9 -9z"/>
<path d="M4916 758 c3 -5 10 -6 15 -3 13 9 11 12 -6 12 -8 0 -12 -4 -9 -9z"/>
<path d="M5876 758 c3 -5 10 -6 15 -3 13 9 11 12 -6 12 -8 0 -12 -4 -9 -9z"/>
<path d="M7796 758 c3 -5 10 -6 15 -3 13 9 11 12 -6 12 -8 0 -12 -4 -9 -9z"/>
<path d="M8756 758 c3 -5 10 -6 15 -3 13 9 11 12 -6 12 -8 0 -12 -4 -9 -9z"/>
<path d="M9146 758 c3 -5 10 -6 15 -3 13 9 11 12 -6 12 -8 0 -12 -4 -9 -9z"/>
<path d="M9395 760 c-3 -5 -1 -10 4 -10 6 0 11 5 11 10 0 6 -2 10 -4 10 -3 0
-8 -4 -11 -10z"/>
<path d="M9473 755 c0 -8 4 -12 9 -9 5 3 6 10 3 15 -9 13 -12 11 -12 -6z"/>
<path d="M10480 760 c-9 -6 -10 -10 -3 -10 6 0 15 5 18 10 8 12 4 12 -15 0z"/>
<path d="M2034 640 c0 -13 4 -16 10 -10 7 7 7 13 0 20 -6 6 -10 3 -10 -10z"/>
<path d="M2439 633 c-13 -16 -12 -17 4 -4 9 7 17 15 17 17 0 8 -8 3 -21 -13z"/>
<path d="M6275 641 c-3 -5 -2 -12 3 -15 5 -3 9 1 9 9 0 17 -3 19 -12 6z"/>
<path d="M9900 646 c0 -2 8 -10 18 -17 15 -13 16 -12 3 4 -13 16 -21 21 -21
13z"/>
<path d="M10430 646 c0 -2 7 -7 16 -10 8 -3 12 -2 9 4 -6 10 -25 14 -25 6z"/>
<path d="M9873 605 c0 -8 4 -12 9 -9 5 3 6 10 3 15 -9 13 -12 11 -12 -6z"/>
<path d="M1353 595 c0 -8 4 -12 9 -9 5 3 6 10 3 15 -9 13 -12 11 -12 -6z"/>
<path d="M10080 580 c-9 -6 -10 -10 -3 -10 6 0 15 5 18 10 8 12 4 12 -15 0z"/>
<path d="M4449 483 c-13 -16 -12 -17 4 -4 9 7 17 15 17 17 0 8 -8 3 -21 -13z"/>
<path d="M4567 479 c7 -7 15 -10 18 -7 3 3 -2 9 -12 12 -14 6 -15 5 -6 -5z"/>
<path d="M3955 281 c-3 -5 -2 -12 3 -15 5 -3 9 1 9 9 0 17 -3 19 -12 6z"/>
<path d="M4835 281 c-3 -5 -2 -12 3 -15 5 -3 9 1 9 9 0 17 -3 19 -12 6z"/>
<path d="M8595 281 c-3 -5 -2 -12 3 -15 5 -3 9 1 9 9 0 17 -3 19 -12 6z"/>
</g>
</svg>
