<?xml version="1.0" encoding="UTF-8"?>
<!DOCTYPE svg PUBLIC "-//W3C//DTD SVG 1.1//EN" "http://www.w3.org/Graphics/SVG/1.1/DTD/svg11.dtd">
<svg xmlns="http://www.w3.org/2000/svg" version="1.1" width="1200px" height="1200px" style="shape-rendering:geometricPrecision; text-rendering:geometricPrecision; image-rendering:optimizeQuality; fill-rule:evenodd; clip-rule:evenodd" xmlns:xlink="http://www.w3.org/1999/xlink">
<g><path style="opacity:0.041" fill="#000000" d="M 1199.5,177.5 C 1199.5,492.167 1199.5,806.833 1199.5,1121.5C 1198.21,1122.29 1197.04,1123.29 1196,1124.5C 1195.9,1129.95 1195.23,1135.28 1194,1140.5C 1190.03,1143.46 1186.37,1146.8 1183,1150.5C 1182.67,1155.17 1182.33,1159.83 1182,1164.5C 1170.27,1176.06 1158.77,1187.73 1147.5,1199.5C 782.167,1199.5 416.833,1199.5 51.5,1199.5C 40.2293,1187.73 28.7293,1176.06 17,1164.5C 16.6667,1159.83 16.3333,1155.17 16,1150.5C 12.6325,1146.8 8.96584,1143.46 5,1140.5C 3.76774,1135.28 3.10107,1129.95 3,1124.5C 1.9609,1123.29 0.794229,1122.29 -0.5,1121.5C -0.5,806.833 -0.5,492.167 -0.5,177.5C 0.794229,176.71 1.9609,175.71 3,174.5C 3.10107,169.054 3.76774,163.721 5,158.5C 8.96584,155.536 12.6325,152.203 16,148.5C 16.3333,143.833 16.6667,139.167 17,134.5C 39.5,112 62,89.5 84.5,67C 89.1667,66.6667 93.8333,66.3333 98.5,66C 102.203,62.6325 105.536,58.9658 108.5,55C 113.721,53.7677 119.054,53.1011 124.5,53C 128.203,49.6325 131.536,45.9658 134.5,42C 143.5,41.6667 152.5,41.3333 161.5,41C 169.678,38.9328 178.011,37.9328 186.5,38C 188.725,37.4389 190.725,36.4389 192.5,35C 193.833,32.3333 195.833,30.3333 198.5,29C 465.833,28.3333 733.167,28.3333 1000.5,29C 1003.17,30.3333 1005.17,32.3333 1006.5,35C 1008.27,36.4389 1010.27,37.4389 1012.5,38C 1020.99,37.9328 1029.32,38.9328 1037.5,41C 1046.5,41.3333 1055.5,41.6667 1064.5,42C 1067.46,45.9658 1070.8,49.6325 1074.5,53C 1079.17,53.3333 1083.83,53.6667 1088.5,54C 1092.45,57.9459 1096.45,61.9459 1100.5,66C 1105.17,66.3333 1109.83,66.6667 1114.5,67C 1137,89.5 1159.5,112 1182,134.5C 1182.33,139.167 1182.67,143.833 1183,148.5C 1186.37,152.203 1190.03,155.536 1194,158.5C 1195.23,163.721 1195.9,169.054 1196,174.5C 1197.04,175.71 1198.21,176.71 1199.5,177.5 Z"/></g>
<g><path style="opacity:0.749" fill="#fbf9df" d="M 184.5,79.5 C 461.167,79.3333 737.834,79.5 1014.5,80C 1073.32,90.8243 1108.16,125.658 1119,184.5C 1119.67,461.167 1119.67,737.833 1119,1014.5C 1108.17,1073.33 1073.33,1108.17 1014.5,1119C 737.833,1119.67 461.167,1119.67 184.5,1119C 125.667,1108.17 90.8333,1073.33 80,1014.5C 79.3333,737.833 79.3333,461.167 80,184.5C 91.0218,125.645 125.855,90.6451 184.5,79.5 Z"/></g>
<g><path style="opacity:1" fill="#9b9db3" d="M 438.5,311.5 C 565.834,311.333 693.167,311.5 820.5,312C 825.18,313.679 829.013,316.512 832,320.5C 833.662,505.124 833.995,689.791 833,874.5C 831.167,881 827,885.167 820.5,887C 693.167,887.667 565.833,887.667 438.5,887C 395.61,878.11 371.443,851.943 366,808.5C 365.333,667.833 365.333,527.167 366,386.5C 373.444,345.224 397.611,320.224 438.5,311.5 Z"/></g>
<g><path style="opacity:1" fill="#1e293b" d="M 691.5,328.5 C 691.833,387.17 691.5,445.837 690.5,504.5C 673.401,487.567 656.401,470.4 639.5,453C 632.207,446.954 624.54,446.287 616.5,451C 598.965,468.702 581.299,486.202 563.5,503.5C 562.501,445.336 562.168,387.002 562.5,328.5C 605.5,328.5 648.5,328.5 691.5,328.5 Z"/></g>
<g><path style="opacity:1" fill="#3a4356" d="M 691.5,328.5 C 648.5,328.5 605.5,328.5 562.5,328.5C 562.168,387.002 562.501,445.336 563.5,503.5C 563.44,504.043 563.107,504.376 562.5,504.5C 561.5,445.504 561.167,386.504 561.5,327.5C 605.003,327.168 648.337,327.501 691.5,328.5 Z"/></g>
<g><path style="opacity:1" fill="#1e293b" d="M 439.5,344.5 C 469.167,344.5 498.833,344.5 528.5,344.5C 528.333,412.167 528.5,479.834 529,547.5C 534.353,561.618 543.52,564.785 556.5,557C 579.707,533.459 603.207,510.293 627,487.5C 650.145,510.645 673.312,533.812 696.5,557C 707.298,564.223 716.131,562.39 723,551.5C 723.333,549.5 723.667,547.5 724,545.5C 724.5,478.501 724.667,411.501 724.5,344.5C 749.833,344.5 775.167,344.5 800.5,344.5C 800.5,469.167 800.5,593.833 800.5,718.5C 681.833,718.333 563.166,718.5 444.5,719C 427.537,720.318 412.37,726.152 399,736.5C 398.333,619.833 398.333,503.167 399,386.5C 404.262,364.407 417.762,350.407 439.5,344.5 Z"/></g>
<g><path style="opacity:1" fill="#1e293b" d="M 441.5,751.5 C 561.167,751.5 680.833,751.5 800.5,751.5C 800.5,785.833 800.5,820.167 800.5,854.5C 680.166,854.667 559.833,854.5 439.5,854C 410.242,845.006 396.742,825.173 399,794.5C 404.681,771.652 418.848,757.319 441.5,751.5 Z"/></g>
</svg>
