<?xml version="1.0" encoding="UTF-8"?>
<svg version="1.1" viewBox="0 0 1200 1200" width="1280" height="1280" xmlns="http://www.w3.org/2000/svg">
<path transform="translate(191,80)" d="m0 0h818l19 3 21 7 15 8 12 9 10 9 9 10 10 15 7 15 6 20 2 15v818l-3 19-7 21-8 15-9 12-9 10-10 9-15 10-15 7-16 5-19 3h-818l-19-3-16-5-16-8-11-7-11-9-9-9-11-15-8-15-7-21-3-19v-818l3-19 7-21 8-15 9-12 9-10 10-9 15-10 15-7 20-6z" fill="#FBFAE8"/>
<path transform="translate(446,312)" d="m0 0h375l6 3 5 6 2 7v544l-3 9-7 6-3 1h-375l-14-2-15-5-13-7-14-11-8-10-8-14-5-13-2-10-1-11v-410l2-16 4-14 8-15 7-9 4-5 13-10 15-8 13-4z" fill="#9C9EB4"/>
<path transform="translate(441,345)" d="m0 0h88l1 202 3 8 6 5 9 1 7-3 8-7 63-63h3l4 5 2 1v2h2l7 8 52 52 6 4 9 1 7-3 3-3 3-7 1-203h76v375l-362 1-16 4-12 5-11 7h-1v-349l4-13 6-10 5-6 12-9 11-4z" fill="#1E293B"/>
<path transform="translate(446,752)" d="m0 0h355v103h-360l-13-4-10-7-6-5-7-10-5-13-1-4v-17l5-15 8-11 10-9 12-6z" fill="#1E293B"/>
<path transform="translate(562,328)" d="m0 0h130v178l-7-6-18-18v-2l-4-2-14-14-7-8-8-6-3-1h-7l-7 3-53 53h-2z" fill="#1E293B"/>
</svg>
