<?xml version="1.0" encoding="UTF-8"?>
<svg version="1.1" viewBox="0 0 1200 1200" width="1280" height="1280" xmlns="http://www.w3.org/2000/svg">
<path transform="translate(189,80)" d="m0 0h822l18 3 18 6 19 10 14 11 12 12 10 14 9 17 6 18 3 18v822l-3 18-6 18-10 19-10 13-14 14-16 11-19 9-17 5-13 2h-824l-17-3-18-6-19-10-13-10-14-14-9-13-9-17-6-18-3-18v-822l3-18 6-18 10-19 11-14 12-12 14-10 17-9 18-6z" fill="#352108"/>
<path transform="translate(444,312)" d="m0 0h377l6 3 6 7 1 5v546l-2 7-8 7-3 1h-377l-17-3-17-7-13-9-8-7-8-10-5-8-6-15-3-12-1-10v-414l2-15 5-15 6-12 7-9 5-6 13-10 10-6 13-5z" fill="#252524"/>
<path transform="translate(441,345)" d="m0 0h88l1 202 3 8 6 5 9 1 7-3 8-7 63-63 4 1 10 10v2l3 1v2l4 2 2 4h2v2l3 1v2l3 1v2h2v2l3 1v2l3 1v2h2l3 3v2l3 1v2h2l4 5 2 1v2h2l4 5 2 1v2l3 1v2h2l5 5 3 2 9 1 7-3 5-6 1-5 1-202h76v375l-362 1-16 4-14 6-9 6h-1v-349l4-13 6-10 6-7 13-9z" fill="#FBF7E0"/>
<path transform="translate(445,752)" d="m0 0h356v103h-360l-13-4-10-7-6-5-7-10-5-13-1-4v-17l5-15 7-10 7-7 11-7 10-3z" fill="#FBF7E0"/>
<path transform="translate(562,328)" d="m0 0h130v178l-7-6-37-37v-2l-3-1v-2h-2v-2l-3-1v-2l-10-4-9 1-6 4-51 51h-2z" fill="#FBF7E0"/>
</svg>
